<svg width="625" height="251" viewBox="0 0 625 251" fill="none" xmlns="http://www.w3.org/2000/svg">
<path d="M57.8775 196.852H73.8304V171.956H32.9807C32.9807 185.716 44.1176 196.852 57.8775 196.852Z" fill="#423E3D"/>
<path d="M349.028 196.852H466.417C473.168 196.852 478.629 191.391 478.629 184.641H349.028V196.852Z" fill="#423E3D"/>
<path d="M130.719 196.852H248.108C254.859 196.852 260.32 191.391 260.32 184.641H130.719V196.852Z" fill="#423E3D"/>
<path d="M285.862 174.493C285.862 158.626 291.151 144.565 299.364 135.793V126.419H319.057C337.375 126.419 352.253 147.919 352.253 174.493C352.253 201.066 337.375 222.566 319.057 222.566H299.364V213.192C291.194 204.42 285.862 190.359 285.862 174.493Z" fill="#423E3D"/>
<path d="M299.364 222.566C281.03 222.566 266.168 201.043 266.168 174.493C266.168 147.942 281.03 126.419 299.364 126.419C317.697 126.419 332.559 147.942 332.559 174.493C332.559 201.043 317.697 222.566 299.364 222.566Z" fill="#423E3D"/>
<path d="M299.364 143.662C300.353 143.662 301.299 143.834 302.245 144.135C294.032 146.672 287.367 159.787 287.367 174.493C287.367 189.199 294.032 202.313 302.245 204.85C301.299 205.151 300.353 205.323 299.364 205.323C289.904 205.323 281.605 190.919 281.605 174.493C281.605 158.067 289.904 143.662 299.364 143.662Z" fill="#423E3D"/>
<path d="M287.367 174.493C287.367 159.787 294.032 146.672 302.245 144.135C310.457 146.672 317.122 159.787 317.122 174.493C317.122 189.199 310.457 202.313 302.245 204.85C294.032 202.313 287.367 189.199 287.367 174.493Z" fill="#423E3D"/>
<path d="M497.549 174.493C497.549 158.626 502.838 144.565 511.051 135.793V126.419H530.745C549.063 126.419 563.94 147.919 563.94 174.493C563.94 201.066 549.063 222.566 530.745 222.566H511.051V213.192C502.881 204.42 497.549 190.359 497.549 174.493Z" fill="#423E3D"/>
<path d="M511.051 222.566C492.717 222.566 477.855 201.043 477.855 174.493C477.855 147.942 492.717 126.419 511.051 126.419C529.384 126.419 544.247 147.942 544.247 174.493C544.247 201.043 529.384 222.566 511.051 222.566Z" fill="#423E3D"/>
<path d="M511.051 143.662C512.04 143.662 512.986 143.834 513.932 144.135C505.719 146.672 499.054 159.787 499.054 174.493C499.054 189.199 505.719 202.313 513.932 204.85C512.986 205.151 512.04 205.323 511.051 205.323C501.591 205.323 493.292 190.919 493.292 174.493C493.292 158.067 501.591 143.662 511.051 143.662Z" fill="#423E3D"/>
<path d="M499.054 174.493C499.054 159.787 505.719 146.672 513.932 144.135C522.145 146.672 528.81 159.787 528.81 174.493C528.81 189.199 522.145 202.313 513.932 204.85C505.719 202.313 499.054 189.199 499.054 174.493Z" fill="#423E3D"/>
<path d="M453.732 87.8483H568.67V99.4582H453.732V87.8483Z" fill="#F6EFD1"/>
<path d="M453.732 99.4582H568.67V153.337H453.732V99.4582Z" fill="#92C4C9"/>
<path d="M560.458 87.8483H568.67V89.8263C575.593 93.3092 580.409 101.135 580.409 110.165V153.337H568.67H540.506V110.208C540.506 97.8672 549.45 87.8483 560.458 87.8483Z" fill="#232323"/>
<path d="M548.719 153.38H588.665V105.177C588.665 95.6312 580.925 87.8913 571.379 87.8913H566.047C556.502 87.8913 548.762 95.6312 548.762 105.177V153.38H548.719Z" fill="#FFC755"/>
<path d="M584.193 153.38V110.208C584.193 100.619 577.227 92.8362 568.67 92.8362C560.113 92.8362 553.148 100.619 553.148 110.208V153.38H584.193Z" fill="#423E3D"/>
<path d="M568.67 130.504C563.042 130.504 558.479 123.554 558.479 114.981C558.479 106.408 563.042 99.4582 568.67 99.4582C574.299 99.4582 578.861 106.408 578.861 114.981C578.861 123.554 574.299 130.504 568.67 130.504Z" fill="#F6EFD1"/>
<path d="M426.686 87.8483L281.132 66.2195H504.429C518.318 66.2195 530.358 74.9914 536.378 87.8483H426.686Z" fill="#F6EFD1"/>
<path d="M67.5095 87.8483C67.5095 75.8944 76.1524 66.2195 86.8593 66.2195H281.132L426.686 87.8483H67.5095Z" fill="#92C4C9"/>
<path d="M426.686 99.4582L426.686 87.8483H536.378C539.001 93.4383 540.506 99.8022 540.506 106.553V153.337L426.686 153.337V171.913H347.05V147.833C347.05 132.783 336.128 120.614 322.712 120.614H300.181C286.722 120.614 275.843 132.826 275.843 147.833V171.913H135.32V147.833C135.32 132.783 124.398 120.614 110.982 120.614H88.4502C74.9913 120.614 64.1125 132.826 64.1125 147.833V171.913H38.8287V99.4582H426.686Z" fill="#92C4C9"/>
<path d="M275.8 147.876C275.8 132.826 286.722 120.657 300.138 120.657H322.669C336.128 120.657 347.007 132.869 347.007 147.876V171.956H275.8V147.876Z" fill="#423E3D"/>
<path d="M298.719 174.493C298.719 158.626 304.008 144.565 312.22 135.793V126.419H331.914C350.232 126.419 365.11 147.919 365.11 174.493C365.11 201.066 350.232 222.566 331.914 222.566H312.22V213.192C304.008 204.42 298.719 190.359 298.719 174.493Z" fill="#FFC755"/>
<path d="M312.177 222.566C293.844 222.566 278.982 201.043 278.982 174.493C278.982 147.942 293.844 126.419 312.177 126.419C330.511 126.419 345.373 147.942 345.373 174.493C345.373 201.043 330.511 222.566 312.177 222.566Z" fill="#232323"/>
<path d="M312.177 143.662C313.166 143.662 314.112 143.834 315.058 144.135C306.846 146.672 300.181 159.787 300.181 174.493C300.181 189.199 306.846 202.313 315.058 204.85C314.112 205.151 313.166 205.323 312.177 205.323C302.718 205.323 294.419 190.919 294.419 174.493C294.419 158.067 302.718 143.662 312.177 143.662Z" fill="#92C4C9"/>
<path d="M300.181 174.493C300.181 159.787 306.846 146.672 315.058 144.135C323.271 146.672 329.936 159.787 329.936 174.493C329.936 189.199 323.271 202.313 315.058 204.85C306.889 202.313 300.181 189.199 300.181 174.493Z" fill="#F6EFD1"/>
<path d="M88.4502 120.614H110.982C124.441 120.614 135.32 132.826 135.32 147.833V171.913H64.1125V147.833C64.1125 132.826 75.0343 120.614 88.4502 120.614Z" fill="#423E3D"/>
<path d="M86.9883 174.493C86.9883 158.626 92.2773 144.565 100.49 135.793V126.419H120.184C138.502 126.419 153.38 147.919 153.38 174.493C153.38 201.066 138.502 222.566 120.184 222.566H100.49V213.192C92.3203 204.42 86.9883 190.359 86.9883 174.493Z" fill="#FFC755"/>
<path d="M100.49 222.566C82.1567 222.566 67.2945 201.043 67.2945 174.493C67.2945 147.942 82.1567 126.419 100.49 126.419C118.824 126.419 133.686 147.942 133.686 174.493C133.686 201.043 118.824 222.566 100.49 222.566Z" fill="#232323"/>
<path d="M100.49 143.662C101.479 143.662 102.425 143.834 103.371 144.135C95.1582 146.672 88.4933 159.787 88.4933 174.493C88.4933 189.199 95.1582 202.313 103.371 204.85C102.425 205.151 101.479 205.323 100.49 205.323C91.0303 205.323 82.7313 190.919 82.7313 174.493C82.7313 158.067 91.0303 143.662 100.49 143.662Z" fill="#92C4C9"/>
<path d="M88.4933 174.493C88.4933 159.787 95.1582 146.672 103.371 144.135C111.584 146.672 118.249 159.787 118.249 174.493C118.249 189.199 111.584 202.313 103.371 204.85C95.2012 202.313 88.4933 189.199 88.4933 174.493Z" fill="#F6EFD1"/>
<path d="M568.67 148.865C566.058 148.865 563.94 145.65 563.94 141.684C563.94 137.718 566.058 134.503 568.67 134.503C571.283 134.503 573.4 137.718 573.4 141.684C573.4 145.65 571.283 148.865 568.67 148.865Z" fill="#F6EFD1"/>
<path d="M426.686 99.4582H38.8287C38.8287 93.0513 43.4726 87.8483 49.2346 87.8483L426.686 87.8483L426.686 99.4582Z" fill="#F6EFD1"/>
<path d="M406.691 169.032H609.692L597.308 153.38H394.264L406.691 169.032Z" fill="#F6EFD1"/>
<path d="M406.691 169.032H609.692L597.308 184.641H394.264L406.691 169.032Z" fill="#FFC755"/>
<path d="M406.691 169.032L394.264 153.38L347.007 153.38V184.641H394.264L406.691 169.032Z" fill="#232323"/>
<path d="M253.483 169.032H120.184L132.611 184.641H265.91L253.483 169.032Z" fill="#FFC755"/>
<path d="M253.483 169.032H120.184L132.611 153.38H265.91L253.483 169.032Z" fill="#F6EFD1"/>
<path d="M253.483 169.032L265.91 184.641L275.8 184.641V153.38L265.91 153.38L253.483 169.032Z" fill="#232323"/>
<path d="M41.7957 169.032H15.2649L27.6488 184.641H54.2226L41.7957 169.032Z" fill="#FFC755"/>
<path d="M41.7957 169.032H15.2649L27.6488 153.38H54.2226L41.7957 169.032Z" fill="#F6EFD1"/>
<path d="M41.7957 169.032L54.2226 184.641L64.1125 184.641V153.38L54.2226 153.38L41.7957 169.032Z" fill="#232323"/>
<path d="M418.473 87.8483L426.686 87.8483L426.686 89.8263C433.608 93.3092 438.424 101.135 438.424 110.165V153.337L426.686 153.337L398.478 153.337V110.208C398.478 97.8672 407.422 87.8483 418.473 87.8483Z" fill="#232323"/>
<path d="M406.691 153.38H446.637V105.177C446.637 95.6312 438.897 87.8913 429.352 87.8913H424.02C414.474 87.8913 406.734 95.6312 406.734 105.177V153.38H406.691Z" fill="#FFC755"/>
<path d="M442.208 153.38V110.208C442.208 100.619 435.242 92.8362 426.686 92.8362C418.129 92.8362 411.163 100.619 411.163 110.208V153.38H442.208Z" fill="#423E3D"/>
<path d="M426.686 130.504C421.057 130.504 416.495 123.554 416.495 114.981C416.495 106.408 421.057 99.4582 426.686 99.4582C432.314 99.4582 436.876 106.408 436.876 114.981C436.876 123.554 432.314 130.504 426.686 130.504Z" fill="#F6EFD1"/>
<path d="M426.686 148.865C424.073 148.865 421.956 145.65 421.956 141.684C421.956 137.718 424.073 134.503 426.686 134.503C429.298 134.503 431.416 137.718 431.416 141.684C431.416 145.65 429.298 148.865 426.686 148.865Z" fill="#F6EFD1"/>
<path d="M266.297 11.1799H386.567L418.473 66.2195L281.132 66.2195L266.297 11.1799Z" fill="#FFC755"/>
<path d="M271.93 66.2195L257.138 11.1799H266.297L281.132 66.2195L271.93 66.2195Z" fill="#F6EFD1"/>
<path d="M263.201 66.2195L248.409 11.1799H257.181L271.973 66.2195H263.201Z" fill="#92C4C9"/>
<path d="M269.35 0L257.095 11.1799H386.223L398.478 0H269.35Z" fill="#F6EFD1"/>
<path d="M263.201 66.2195L248.409 11.1799L205.968 11.1799V66.2195L263.201 66.2195Z" fill="#F6EFD1"/>
<path d="M195.519 11.1799H205.968V66.2195H195.519V11.1799Z" fill="#92C4C9"/>
<path d="M125.215 66.2195H195.519V11.1799H146.672L125.215 66.2195Z" fill="#F6EFD1"/>
<path d="M116.314 66.2195L137.771 11.1799H146.672L125.215 66.2195H116.314Z" fill="#92C4C9"/>
<path d="M257.095 11.1799L137.771 11.1799C137.771 5.03096 142.243 0 147.747 0H269.35L257.095 11.1799Z" fill="#FFC755"/>
<path d="M485.251 124.699H501.892C518.662 124.699 532.938 136.653 538.27 153.38H448.873C454.205 136.653 468.481 124.699 485.251 124.699Z" fill="#423E3D"/>
<path d="M474.931 120.614H481.252V153.38H474.931V120.614Z" fill="#FFC755"/>
<path d="M468.61 120.614L474.931 120.614V153.38H468.61V120.614Z" fill="#232323"/>
<path d="M495.657 120.614H501.978V153.38H495.657V120.614Z" fill="#FFC755"/>
<path d="M489.336 120.614L495.657 120.614V153.38H489.336V120.614Z" fill="#232323"/>
<path d="M516.426 120.614H522.747V153.38H516.426V120.614Z" fill="#FFC755"/>
<path d="M510.105 120.614H516.426V153.38H510.105V120.614Z" fill="#232323"/>
<path d="M446.637 153.38C446.637 129.515 463.923 110.208 485.251 110.208H501.892C523.22 110.208 540.506 129.558 540.506 153.38H538.27C532.938 136.653 518.662 124.699 501.892 124.699H485.251C468.481 124.699 454.205 136.653 448.873 153.38H446.637Z" fill="#F6EFD1"/>
<path d="M199.217 66.2195H202.27V87.8483H199.217V66.2195Z" fill="#423E3D"/>
<path d="M199.217 99.4582H202.27V153.337H199.217V99.4582Z" fill="#423E3D"/>
<path d="M196.164 87.8483H199.217V99.4582H196.164V87.8483Z" fill="#423E3D"/>
<path d="M620.27 222.566H4.72996C2.10698 222.566 0 224.673 0 227.296C0 229.919 2.10698 232.026 4.72996 232.026H86.9883C89.6113 232.026 91.7182 234.133 91.7182 236.756C91.7182 239.379 89.6113 241.486 86.9883 241.486H58.0065C55.3835 241.486 53.2765 243.593 53.2765 246.216C53.2765 248.839 55.3835 250.946 58.0065 250.946H508.643C511.266 250.946 513.373 248.839 513.373 246.216C513.373 243.593 511.266 241.486 508.643 241.486H399.94C397.317 241.486 395.21 239.379 395.21 236.756C395.21 234.133 397.317 232.026 399.94 232.026H620.27C622.893 232.026 625 229.919 625 227.296C624.957 224.673 622.85 222.566 620.27 222.566Z" fill="#423E3D"/>
<path d="M540.033 241.4H524.596C521.973 241.4 519.866 243.507 519.866 246.13C519.866 248.753 521.973 250.86 524.596 250.86H540.033C542.656 250.86 544.763 248.753 544.763 246.13C544.763 243.507 542.613 241.4 540.033 241.4Z" fill="#423E3D"/>
<path d="M38.8716 241.4H29.4978C26.8748 241.4 24.7678 243.507 24.7678 246.13C24.7678 248.753 26.8748 250.86 29.4978 250.86H38.8716C41.4946 250.86 43.6016 248.753 43.6016 246.13C43.6016 243.507 41.4946 241.4 38.8716 241.4Z" fill="#423E3D"/>
</svg>
