<svg width="16" height="16" viewBox="0 0 16 16" fill="none" xmlns="http://www.w3.org/2000/svg">
<g clip-path="url(#clip0_208_981)">
<path d="M14.0125 2.48474L10.4925 2.48476V1.12126C10.4925 0.48801 9.9768 -0.0114899 9.34355 -0.0114899H6.6563C6.02305 -0.0114899 5.50755 0.48801 5.50755 1.12126V2.48476H1.98755C1.71153 2.48476 1.48755 2.70876 1.48755 2.98476C1.48755 3.26076 1.71153 3.48476 1.98755 3.48476H2.67528L3.83528 15.046C3.88378 15.587 4.34478 16.0112 4.88428 16.0112H11.1155C11.655 16.0112 12.1155 15.587 12.1638 15.0507L13.3248 3.48451H14.0125C14.2888 3.48451 14.5125 3.26051 14.5125 2.98451C14.5125 2.70851 14.2888 2.48474 14.0125 2.48474H14.0125ZM6.50753 1.12127C6.50753 1.03952 6.57427 0.972759 6.65628 0.972759H9.34353C9.42553 0.972759 9.49253 1.03952 9.49253 1.12127V2.48477H6.50753V1.12127ZM11.1683 14.9563C11.1658 14.984 11.133 15.0115 11.1155 15.0115H4.88428C4.86678 15.0115 4.83378 14.9843 4.83077 14.9515L3.68027 3.48502H12.3195L11.1683 14.9563Z" fill="black"/>
</g>
<defs>
<clipPath id="clip0_208_981">
<rect width="16" height="16" fill="white"/>
</clipPath>
</defs>
</svg>
