<svg width="16" height="16" viewBox="0 0 16 16" fill="none" xmlns="http://www.w3.org/2000/svg">
<g clip-path="url(#clip0_194_867)">
<path d="M15.0665 0.776002C14.5217 0.254002 13.9208 -0.010498 13.2793 -0.010498C12.2763 -0.010498 11.5445 0.637502 11.3443 0.836002C11.0625 1.115 1.45128 10.7297 1.45128 10.7297C1.38829 10.793 1.34281 10.8716 1.31929 10.9577C1.10254 11.7587 0.0167937 15.3127 0.00601248 15.3485C-0.0497219 15.5305 1.24762e-05 15.7288 0.134263 15.863C0.228964 15.9574 0.35725 16.0105 0.490997 16.0105C0.542747 16.0105 0.594981 16.0027 0.645981 15.986C0.682731 15.974 4.35123 14.7882 4.95497 14.608C5.03463 14.584 5.10722 14.5409 5.16647 14.4825C5.54797 14.1055 14.5122 5.241 15.1072 4.6265C15.7227 3.99225 16.0285 3.33175 16.0167 2.66375C16.0045 2.00425 15.6847 1.36925 15.0665 0.776002V0.776002ZM11.185 2.435C11.4398 2.49675 12.0406 2.69847 12.6541 3.31749C13.2741 3.94299 13.4418 4.65799 13.4731 4.82074C11.5071 6.77648 6.98156 11.254 5.19756 13.0187C5.03281 12.635 4.76656 12.1727 4.3383 11.7412C3.81531 11.2142 3.28304 10.9165 2.87254 10.749C4.63804 8.98325 9.2488 4.3705 11.185 2.435V2.435ZM2.19356 11.593C2.46831 11.666 3.03904 11.8777 3.62081 12.4642C4.06881 12.916 4.28031 13.4142 4.37531 13.718C3.68031 13.9415 2.15856 14.4667 1.19156 14.7785C1.47806 13.8357 1.96204 12.3675 2.19356 11.593ZM14.3815 3.91197C14.35 3.94413 14.3184 3.97621 14.2868 4.00822C14.1288 3.6012 13.8515 3.07822 13.3715 2.59422C12.881 2.09972 12.3835 1.80797 11.9848 1.63547C12.0188 1.60172 12.045 1.5752 12.0553 1.56522C12.1125 1.5087 12.6318 1.01247 13.279 1.01247C13.6515 1.01247 14.0173 1.18247 14.3668 1.51747C14.781 1.91472 14.9945 2.30672 15.0015 2.68297C15.0083 3.06697 14.7998 3.48047 14.3815 3.91197V3.91197Z" fill="#232323"/>
</g>
<defs>
<clipPath id="clip0_194_867">
<rect width="16" height="16" fill="white"/>
</clipPath>
</defs>
</svg>
