<svg width="128" height="128" viewBox="0 0 128 128" fill="none" xmlns="http://www.w3.org/2000/svg">
<rect width="128" height="128" rx="64" fill="#F0BF11"/>
<path d="M47.752 87.768C44.296 87.768 41.0747 87.2133 38.088 86.104C35.144 84.952 32.584 83.3307 30.408 81.24C28.232 79.1493 26.5253 76.696 25.288 73.88C24.0933 71.064 23.496 67.9707 23.496 64.6C23.496 61.2293 24.0933 58.136 25.288 55.32C26.5253 52.504 28.232 50.0507 30.408 47.96C32.6267 45.8693 35.208 44.2693 38.152 43.16C41.096 42.008 44.3173 41.432 47.816 41.432C51.6987 41.432 55.1973 42.1147 58.312 43.48C61.4693 44.8027 64.1147 46.7653 66.248 49.368L59.592 55.512C58.056 53.7627 56.3493 52.4613 54.472 51.608C52.5947 50.712 50.5467 50.264 48.328 50.264C46.2373 50.264 44.3173 50.6053 42.568 51.288C40.8187 51.9707 39.304 52.952 38.024 54.232C36.744 55.512 35.7413 57.0267 35.016 58.776C34.3333 60.5253 33.992 62.4667 33.992 64.6C33.992 66.7333 34.3333 68.6747 35.016 70.424C35.7413 72.1733 36.744 73.688 38.024 74.968C39.304 76.248 40.8187 77.2293 42.568 77.912C44.3173 78.5947 46.2373 78.936 48.328 78.936C50.5467 78.936 52.5947 78.5093 54.472 77.656C56.3493 76.76 58.056 75.416 59.592 73.624L66.248 79.768C64.1147 82.3707 61.4693 84.3547 58.312 85.72C55.1973 87.0853 51.6773 87.768 47.752 87.768ZM73.2495 87V42.2H83.6175V78.552H106.082V87H73.2495Z" fill="white"/>
</svg>
