<svg width="16" height="16" viewBox="0 0 16 16" fill="none" xmlns="http://www.w3.org/2000/svg">
<path fill-rule="evenodd" clip-rule="evenodd" d="M11.6051 13V14.4728C11.6051 15.2914 12.2711 15.9574 13.0897 15.9574H13.8627C14.6813 15.9574 15.3473 15.2915 15.3474 14.4728V13H14.4094V14.4728C14.4094 14.7743 14.1642 15.0195 13.8627 15.0195H13.0897C12.7882 15.0195 12.543 14.7743 12.543 14.4728V13H11.6051Z" fill="white"/>
<path fill-rule="evenodd" clip-rule="evenodd" d="M0.65271 13V14.4728C0.65271 15.2914 1.31874 15.9574 2.13733 15.9574H2.9103C3.72893 15.9574 4.39493 15.2915 4.39496 14.4728V13H3.45699V14.4728C3.45699 14.7743 3.21177 15.0195 2.91027 15.0195H2.13733C1.83583 15.0195 1.59062 14.7743 1.59062 14.4728V13H0.65271Z" fill="white"/>
<path d="M4.4806 11.0152H3.46213C3.20316 11.0152 2.99316 10.8053 2.99316 10.5462C2.99316 10.2872 3.20316 10.0773 3.46213 10.0773H4.4806C4.73957 10.0773 4.94957 10.2872 4.94957 10.5462C4.94954 10.8053 4.73954 11.0152 4.4806 11.0152Z" fill="white"/>
<path d="M12.5378 11.0152H11.5194C11.2604 11.0152 11.0504 10.8053 11.0504 10.5462C11.0504 10.2872 11.2604 10.0773 11.5194 10.0773H12.5379C12.7968 10.0773 13.0068 10.2872 13.0068 10.5462C13.0068 10.8053 12.7968 11.0152 12.5378 11.0152Z" fill="white"/>
<path d="M2.17257 8.5831C2.15507 8.5831 2.13745 8.58213 2.11964 8.58013C1.86226 8.55125 1.67704 8.31916 1.70598 8.06179L2.53404 0.68717C2.56292 0.429764 2.79464 0.244702 3.05242 0.273452C3.30979 0.302327 3.49501 0.53442 3.46607 0.791795L2.63801 8.16644C2.61114 8.40604 2.40814 8.5831 2.17257 8.5831Z" fill="white"/>
<path d="M13.6182 8.58261C13.6381 8.58261 13.658 8.58164 13.6782 8.57964C13.9697 8.55077 14.1794 8.31867 14.1467 8.0613L13.2089 0.686682C13.1762 0.429276 12.9138 0.244213 12.6219 0.272963C12.3304 0.301838 12.1206 0.533932 12.1534 0.791306L13.0912 8.16595C13.1216 8.40555 13.3515 8.58261 13.6182 8.58261Z" fill="white"/>
<path fill-rule="evenodd" clip-rule="evenodd" d="M15.531 13.2165C15.79 13.2165 16 13.0065 16 12.7475C16 12.4885 15.79 12.2785 15.5311 12.2785H15.3518V9.5333C15.3518 8.64421 14.6285 7.9209 13.7394 7.9209H2.26048C1.37138 7.9209 0.648071 8.64421 0.648071 9.5333V12.2785H0.468969C0.21 12.2785 0 12.4885 0 12.7475C0 13.0065 0.21 13.2165 0.468969 13.2165H15.531ZM14.4139 12.2786L1.58598 12.2785V9.5333C1.58598 9.16137 1.88854 8.8588 2.26048 8.8588H13.7394C14.1113 8.8588 14.4139 9.16137 14.4139 9.5333V12.2786Z" fill="white"/>
<path d="M13.54 1H2.46002C2.20599 1 2 0.776171 2 0.5C2 0.223829 2.20599 0 2.46002 0H13.54C13.794 0 14 0.223829 14 0.5C14 0.776171 13.794 1 13.54 1Z" fill="white"/>
<path d="M2.42884 5.7104H0.982274C0.723306 5.7104 0.513306 5.50046 0.513306 5.24143C0.513306 4.9824 0.723306 4.77246 0.982274 4.77246H2.4288C2.68777 4.77246 2.89777 4.9824 2.89777 5.24143C2.89777 5.50046 2.68777 5.7104 2.42884 5.7104Z" fill="white"/>
<path d="M14.6855 5.70796H13.239C12.98 5.70796 12.77 5.49802 12.77 5.23899C12.77 4.97996 12.98 4.77002 13.239 4.77002H14.6855C14.9445 4.77002 15.1545 4.97996 15.1545 5.23899C15.1545 5.49802 14.9445 5.70796 14.6855 5.70796Z" fill="white"/>
</svg>
