<svg width="16" height="17" viewBox="0 0 16 17" fill="none" xmlns="http://www.w3.org/2000/svg">
<path d="M11.6562 13.0593L8.50827 11.3155C9.67827 10.395 9.99602 8.58602 9.99602 7.57175V5.4605C9.99602 4.06249 8.13852 2.50549 6.27277 2.50549C4.40752 2.50549 2.50077 4.06274 2.50077 5.4605V7.57175C2.50077 8.494 2.891 10.3598 4.07302 11.3075L0.84375 13.0593C0.84375 13.0593 0 13.4353 0 13.904V15.171C0 15.6373 0.378484 16.0158 0.84375 16.0158H11.6562C12.122 16.0158 12.5005 15.6373 12.5005 15.171V13.904C12.5005 13.407 11.6562 13.0593 11.6562 13.0593L11.6562 13.0593ZM11.5005 15.0158H1.00003V14.1218C1.07178 14.0696 1.17203 14.0091 1.25103 13.9728C1.27452 13.9621 1.29802 13.9508 1.32027 13.9381L4.54977 12.1866C4.84427 12.0268 5.03952 11.7306 5.06927 11.3971C5.09902 11.0636 4.95977 10.7368 4.69877 10.5273C3.86027 9.85505 3.50102 8.36605 3.50102 7.5718V5.46054C3.50102 4.74229 4.85502 3.50554 6.27302 3.50554C7.71727 3.50554 8.99627 4.72531 8.99627 5.46054V7.5718C8.99627 8.35505 8.75302 9.85055 7.89027 10.5293C7.76021 10.6317 7.65757 10.7648 7.59152 10.9165C7.52547 11.0683 7.49807 11.2341 7.51177 11.3991C7.52569 11.5639 7.58024 11.7228 7.67055 11.8614C7.76085 12.0001 7.88409 12.1142 8.02927 12.1936L11.1773 13.9373C11.205 13.9526 11.2403 13.9691 11.2695 13.9818C11.3433 14.0131 11.434 14.0653 11.5005 14.1113V15.0158V15.0158ZM15.1558 10.5696L11.961 8.82579C13.131 7.90528 13.4958 6.09628 13.4958 5.08201V2.97076C13.4958 1.57275 11.5915 0 9.72577 0C8.51327 0 7.27353 0.659252 6.55202 1.50352C6.96353 1.529 7.41728 1.52952 7.80928 1.65452C8.33602 1.24427 9.00253 1.00027 9.72578 1.00027C11.17 1.00027 12.4958 2.23551 12.4958 2.97102V5.08228C12.4958 5.86551 12.2058 7.36103 11.343 8.03978C11.213 8.14219 11.1103 8.27523 11.0443 8.42701C10.9782 8.57879 10.9508 8.74458 10.9645 8.90954C10.9784 9.07441 11.033 9.23326 11.1233 9.3719C11.2136 9.51054 11.3368 9.62465 11.482 9.70404L14.6768 11.4478C14.7045 11.463 14.7398 11.4795 14.769 11.4923C14.8428 11.5235 14.9335 11.5758 15 11.6218V12.511H12.9815C13.2863 12.741 13.3785 13.07 13.4968 13.511H15.156C15.6218 13.511 16.0002 13.1325 16.0002 12.6663V11.4148C16 10.9173 15.1558 10.5695 15.1558 10.5695L15.1558 10.5696Z" fill="white"/>
</svg>
