<svg width="16" height="17" viewBox="0 0 16 17" fill="none" xmlns="http://www.w3.org/2000/svg">
<path d="M15.995 8.9565C15.9965 8.6275 15.9447 7.38625 15.9052 7.03125C15.4502 2.957 12.1435 0 8.04301 0C3.77201 0 0.311531 3.291 0.0767655 7.65475C0.0717655 7.75 0.0367656 8.42575 0.0342656 8.828L0.0330156 9.05175C0.0125 9.14425 0 9.23975 0 9.33825V12.6922C0 13.4247 0.595749 14.0205 1.32825 14.0205H2.6765C3.409 14.0205 4.00498 13.4247 4.00498 12.6922V9.3385C4.00498 8.606 3.40873 8.01025 2.67648 8.01025H1.328C1.23781 8.01026 1.14785 8.01939 1.0595 8.0375C1.067 7.87526 1.07375 7.74725 1.07551 7.7085C1.28126 3.88375 4.31201 1 8.04299 1C11.6255 1 14.5137 3.5835 14.9112 7.1425C14.928 7.291 14.9495 7.6685 14.9667 8.0475C14.87 8.025 14.7702 8.01023 14.6667 8.01023H13.3342C12.6017 8.01023 12.006 8.60598 12.006 9.33848V12.677C12.006 13.1827 12.2935 13.6185 12.7105 13.8425L9.50052 15.1027V15.0212C9.50052 14.7452 9.2765 14.5212 9.00052 14.5212H7.50052C7.22451 14.5212 7.00052 14.7452 7.00052 15.0212V15.5212C7.00052 15.7972 7.22451 16.0212 7.50052 16.0212H9.00052C9.00477 16.0212 9.00852 16.02 9.01277 16.02L9.90902 16.0165L15.0583 13.995C15.1258 13.967 15.183 13.9252 15.23 13.8752C15.6808 13.6625 15.9955 13.2075 15.9955 12.677V9.33847C15.9955 9.25697 15.9855 9.17772 15.9713 9.10045C15.985 9.05445 15.9948 9.0067 15.995 8.95645L15.995 8.9565ZM1.32801 9.01025H2.67629C2.85754 9.01025 3.00478 9.15725 3.00478 9.3385V12.6925C3.00478 12.8737 2.85728 13.0207 2.67626 13.0207H1.32803C1.14678 13.0207 0.999796 12.8737 0.999796 12.6925V9.3385C1.00003 9.15725 1.14703 9.01025 1.32803 9.01025H1.32801ZM13.0058 9.3385C13.0058 9.15725 13.1528 9.01025 13.334 9.01025H14.6665C14.8478 9.01025 14.995 9.15725 14.995 9.3385V12.677C14.995 12.8582 14.8475 13.0052 14.6665 13.0052H13.334C13.1528 13.0052 13.0058 12.8582 13.0058 12.677V9.3385V9.3385Z" fill="white"/>
</svg>
