<svg width="16" height="16" viewBox="0 0 16 16" fill="none" xmlns="http://www.w3.org/2000/svg">
<path d="M15.0077 6.48525L13.7245 6.2005C13.6245 5.8805 13.4935 5.57425 13.3432 5.27977L14.0375 4.12302C14.2967 3.70877 14.4277 3.09927 14.0375 2.70877L13.33 2.00177C12.9397 1.61127 12.2807 1.68152 11.8827 1.95752L10.7572 2.6745C10.4652 2.523 10.16 2.39325 9.84272 2.29075L9.55473 0.992C9.46873 0.515766 9.05223 0 8.49998 0H7.49998C6.94773 0 6.60923 0.5235 6.49998 1L6.17923 2.28325C5.84048 2.39125 5.51523 2.52925 5.20523 2.69275L4.05148 1.958C3.65373 1.682 2.99448 1.61175 2.60423 2.00225L1.89698 2.70925C1.50648 3.1 1.63748 3.70925 1.89698 4.1235L2.62748 5.341C2.4905 5.617 2.36898 5.9025 2.27523 6.20075L0.992234 6.4855C0.515734 6.57125 0 6.98775 0 7.54V8.54C0 9.09225 0.5235 9.43075 1 9.54L2.29925 9.86475C2.38902 10.1402 2.50125 10.4048 2.62825 10.6613L1.897 11.88C1.63777 12.294 1.50677 12.9035 1.897 13.294L2.6045 14.001C2.99475 14.3918 3.65375 14.3213 4.05175 14.0455L5.208 13.3087C5.51975 13.4732 5.84675 13.6125 6.18775 13.7203L6.50773 15C6.61723 15.4765 6.95548 16 7.50773 16H8.50773C9.05998 16 9.47648 15.4843 9.56248 15.0077L9.85098 13.7055C10.165 13.604 10.4662 13.476 10.7547 13.3265L11.8827 14.0452C12.2807 14.3212 12.94 14.3915 13.33 14.0007L14.0375 13.2937C14.4278 12.903 14.2968 12.2938 14.0375 11.8798L13.3428 10.7215C13.4825 10.447 13.6035 10.1615 13.7008 9.8645L15 9.54C15.4765 9.4305 16 9.09225 16 8.54V7.54C16 6.98775 15.4845 6.57125 15.0077 6.48525ZM15.0005 8.4695C14.958 8.5 14.878 8.54192 14.7765 8.56542L12.9225 9.02841L12.7505 9.55391C12.6727 9.79067 12.5722 10.0309 12.4517 10.2682L12.2007 10.7614L13.1802 12.3947C13.2427 12.4947 13.272 12.5842 13.2807 12.6369L12.623 13.2937C12.5595 13.2737 12.4872 13.2477 12.4525 13.2239L10.8065 12.1742L10.2947 12.4389C10.0482 12.5669 9.7952 12.6729 9.5432 12.7544L8.9982 12.9307L8.5862 14.7919C8.5672 14.8914 8.51395 14.9717 8.47745 15.0004H7.57745C7.54697 14.9579 7.50522 14.8779 7.48195 14.7767L7.02172 12.9359L6.48898 12.7669C6.21447 12.6804 5.94073 12.5652 5.67423 12.4247L5.15998 12.1532L3.51373 13.2024C3.44648 13.2479 3.37448 13.2737 3.30923 13.2737L2.65348 12.6354C2.66223 12.5837 2.68948 12.4982 2.74398 12.411L3.76673 10.707L3.52348 10.2172C3.40998 9.9862 3.31998 9.76945 3.24998 9.5547L3.07823 9.0287L1.24247 8.56969C1.12697 8.54344 1.04347 8.50044 0.999969 8.46969V7.53994L1.00223 7.54044C1.01898 7.54044 1.10123 7.48192 1.16973 7.46944L3.05598 7.05167L3.22922 6.50042C3.29972 6.27592 3.39597 6.04192 3.52322 5.78519L3.76647 5.29519L2.75448 3.60894C2.69173 3.50844 2.66273 3.41894 2.65398 3.36644L3.31148 2.70917C3.37523 2.72967 3.44698 2.75542 3.48148 2.77917L5.15823 3.84792L5.67198 3.57692C5.93573 3.43794 6.20848 3.32319 6.48298 3.23594L7.01448 3.06669L7.47047 1.2422C7.49698 1.12672 7.53947 1.04322 7.57047 0.999703H8.5C8.49323 1.00997 8.5575 1.0972 8.57073 1.16947L8.99073 3.06647L9.53523 3.24247C9.79048 3.32497 10.047 3.43247 10.2965 3.56197L10.8082 3.82772L12.42 2.80097C12.4875 2.75495 12.5597 2.72947 12.6245 2.72947L13.2807 3.36722C13.272 3.41922 13.2445 3.50497 13.19 3.59247L12.2002 5.24072L12.4527 5.73472C12.589 6.00122 12.693 6.25122 12.7702 6.49922L12.943 7.05147L14.7913 7.46172C14.903 7.48247 14.99 7.54697 15.0085 7.58197L15.0005 8.4695ZM8.00672 4.99491C6.34622 4.99491 4.99522 6.34316 4.99522 7.99991C4.99522 9.65641 6.34622 11.0047 8.00672 11.0047C9.66722 11.0047 11.0182 9.65641 11.0182 7.99991C11.0182 6.34316 9.66722 4.99491 8.00672 4.99491ZM7.99997 9.99991C6.89722 9.99991 5.99997 9.10266 5.99997 7.99991C5.99997 6.89691 6.89722 5.99991 7.99997 5.99991C9.10297 5.99991 9.99997 6.89691 9.99997 7.99991C9.99997 9.10266 9.10272 9.99991 7.99997 9.99991Z" fill="white"/>
</svg>
