<svg width="18" height="20" viewBox="0 0 18 20" fill="none" xmlns="http://www.w3.org/2000/svg">
<path fill-rule="evenodd" clip-rule="evenodd" d="M8.99634 2.58108e-07C7.82024 -0.000359941 6.67499 0.376291 5.7287 1.07467C4.7824 1.77305 4.08489 2.75638 3.73855 3.88032C3.3922 5.00427 3.41526 6.20964 3.80434 7.31952C4.19342 8.42939 4.92802 9.38532 5.90034 10.047C4.21283 10.6659 2.74916 11.7757 1.6977 13.2335C0.646232 14.6913 0.055086 16.4304 0.000337811 18.227C-0.00562956 18.4259 0.0676652 18.619 0.204098 18.7639C0.340531 18.9088 0.528925 18.9935 0.727838 18.9995C0.92675 19.0055 1.11989 18.9322 1.26476 18.7957C1.40963 18.6593 1.49437 18.4709 1.50034 18.272C1.55989 16.3235 2.3758 14.4747 3.77517 13.1174C5.17453 11.7602 7.04738 11.0011 8.99684 11.0011C10.9463 11.0011 12.8191 11.7602 14.2185 13.1174C15.6179 14.4747 16.4338 16.3235 16.4933 18.272C16.4941 18.3719 16.5148 18.4706 16.5542 18.5623C16.5936 18.6541 16.651 18.737 16.7229 18.8063C16.7948 18.8756 16.8798 18.9299 16.973 18.9659C17.0661 19.0019 17.1655 19.0189 17.2653 19.016C17.3651 19.013 17.4634 18.9902 17.5542 18.9488C17.6451 18.9074 17.7268 18.8483 17.7945 18.7749C17.8623 18.7015 17.9146 18.6153 17.9486 18.5214C17.9826 18.4275 17.9974 18.3277 17.9923 18.228C17.9378 16.4312 17.3467 14.6919 16.2953 13.2339C15.2438 11.7759 13.78 10.666 12.0923 10.047C13.0647 9.38532 13.7993 8.42939 14.1883 7.31952C14.5774 6.20964 14.6005 5.00427 14.2541 3.88032C13.9078 2.75638 13.2103 1.77305 12.264 1.07467C11.3177 0.376291 10.1724 -0.000359941 8.99634 2.58108e-07V2.58108e-07ZM4.99634 5.5C4.99634 4.43913 5.41777 3.42172 6.16791 2.67157C6.91806 1.92143 7.93547 1.5 8.99634 1.5C10.0572 1.5 11.0746 1.92143 11.8248 2.67157C12.5749 3.42172 12.9963 4.43913 12.9963 5.5C12.9963 6.56087 12.5749 7.57828 11.8248 8.32843C11.0746 9.07857 10.0572 9.5 8.99634 9.5C7.93547 9.5 6.91806 9.07857 6.16791 8.32843C5.41777 7.57828 4.99634 6.56087 4.99634 5.5V5.5Z" fill="white"/>
</svg>
