<svg width="18" height="22" viewBox="0 0 18 22" fill="none" xmlns="http://www.w3.org/2000/svg">
<path fill-rule="evenodd" clip-rule="evenodd" d="M4.5 6.2663C4.5 3.5963 6.422 1.5163 9 1.5163C11.079 1.5163 12.71 2.8563 13.282 4.7583C13.3085 4.85471 13.354 4.94486 13.4159 5.02342C13.4778 5.10198 13.5547 5.16738 13.6422 5.21577C13.7297 5.26416 13.826 5.29456 13.9255 5.30518C14.0249 5.31581 14.1255 5.30644 14.2212 5.27763C14.317 5.24882 14.406 5.20116 14.4831 5.13744C14.5601 5.07372 14.6237 4.99523 14.67 4.90659C14.7163 4.81795 14.7443 4.72095 14.7526 4.6213C14.7608 4.52164 14.7491 4.42134 14.718 4.3263C13.971 1.8413 11.792 0.0162964 9 0.0162964C5.503 0.0162964 3 2.8613 3 6.2663V8.0163H2.5C1.83696 8.0163 1.20107 8.27969 0.732233 8.74853C0.263392 9.21737 0 9.85326 0 10.5163V18.5163C0 19.1793 0.263392 19.8152 0.732233 20.2841C1.20107 20.7529 1.83696 21.0163 2.5 21.0163H15.5C16.163 21.0163 16.7989 20.7529 17.2678 20.2841C17.7366 19.8152 18 19.1793 18 18.5163V10.5163C18 9.85326 17.7366 9.21737 17.2678 8.74853C16.7989 8.27969 16.163 8.0163 15.5 8.0163H4.5V6.2663ZM1.5 10.5163C1.5 10.2511 1.60536 9.99673 1.79289 9.80919C1.98043 9.62165 2.23478 9.5163 2.5 9.5163H15.5C15.7652 9.5163 16.0196 9.62165 16.2071 9.80919C16.3946 9.99673 16.5 10.2511 16.5 10.5163V18.5163C16.5 18.7815 16.3946 19.0359 16.2071 19.2234C16.0196 19.4109 15.7652 19.5163 15.5 19.5163H2.5C2.23478 19.5163 1.98043 19.4109 1.79289 19.2234C1.60536 19.0359 1.5 18.7815 1.5 18.5163V10.5163Z" fill="white"/>
</svg>
